<svg width="110" height="37" viewBox="0 0 110 37" fill="none" xmlns="http://www.w3.org/2000/svg">
<path fill-rule="evenodd" clip-rule="evenodd" d="M8.94696 10.8867C9.16816 10.8048 9.40369 10.7669 9.63972 10.775C9.87533 10.7677 10.1103 10.8059 10.3311 10.8876C10.5559 10.9709 10.7617 11.0977 10.9358 11.2609L10.9399 11.2648L10.9439 11.2689C11.1122 11.4381 11.2439 11.6391 11.3307 11.8602C11.4028 12.0439 11.4426 12.238 11.4485 12.4343C11.6735 12.2562 11.9113 12.0936 12.1602 11.9478L12.1616 11.947C13.2139 11.3373 14.4194 11.0249 15.6431 11.0439C16.8319 11.0228 18.0052 11.3132 19.0395 11.8854L19.0419 11.8867C19.7123 12.2651 20.2947 12.7728 20.754 13.3775C21.2704 12.7976 21.8894 12.3111 22.5824 11.9414L22.5835 11.9408C23.7347 11.3322 25.0278 11.0234 26.3372 11.0439C27.5263 11.0217 28.7 11.3122 29.734 11.8855L29.7379 11.8877C30.7394 12.461 31.5479 13.3069 32.0628 14.3225L32.0651 14.3272C32.6376 15.503 32.915 16.7943 32.8739 18.0951V26.8943C32.8793 27.1262 32.8377 27.3568 32.7517 27.5727C32.6653 27.79 32.5357 27.988 32.3709 28.1554L32.3675 28.1589C32.1126 28.4103 31.7875 28.5811 31.4342 28.6508C31.0809 28.7205 30.7141 28.6863 30.3805 28.5522C30.0467 28.4181 29.7602 28.1896 29.5588 27.8947C29.3576 27.6 29.2507 27.2527 29.2531 26.8972V18.0899C29.2531 16.8172 28.9206 15.8911 28.302 15.2604C27.9842 14.9403 27.5997 14.6884 27.1735 14.5218C26.747 14.3551 26.2887 14.2777 25.8288 14.2949L25.8179 14.2954L25.8069 14.295C25.3168 14.2805 24.8293 14.3682 24.3776 14.552C23.9265 14.7355 23.5219 15.0104 23.1907 15.3576C22.4872 16.1161 22.1191 17.11 22.1622 18.1262L22.1625 18.1331V26.8938C22.1745 27.3594 22 27.8099 21.6785 28.1506L21.6743 28.155C21.5058 28.3269 21.302 28.4611 21.0768 28.5492C20.8553 28.6358 20.6178 28.6759 20.3798 28.6672C20.1434 28.6724 19.9081 28.631 19.6881 28.5452C19.4645 28.458 19.2612 28.3267 19.0911 28.1589L19.089 28.1568C18.9228 27.9899 18.7919 27.7918 18.7047 27.5741C18.618 27.3578 18.5761 27.1266 18.5818 26.8941V18.0899C18.5818 16.8171 18.2501 15.891 17.6334 15.2603C17.3142 14.9392 16.928 14.6868 16.5 14.5202C16.0716 14.3534 15.6113 14.2766 15.1496 14.2949L15.139 14.2953L15.1285 14.2951C14.639 14.2828 14.1526 14.3704 13.7007 14.5521C13.2491 14.7336 12.8424 15.0049 12.5067 15.3479C12.1536 15.7114 11.879 16.139 11.6984 16.6055C11.5177 17.0721 11.4346 17.5687 11.4536 18.0664L11.4539 18.0726V26.8943C11.4592 27.1262 11.4177 27.3568 11.3317 27.5727C11.2452 27.79 11.1156 27.988 10.9509 28.1554L10.9475 28.1588C10.7758 28.3283 10.5702 28.4607 10.344 28.5479C10.1217 28.6337 9.88402 28.6742 9.64552 28.6672C9.40586 28.6751 9.16685 28.6351 8.94329 28.5493C8.71586 28.462 8.50909 28.3292 8.33656 28.1588L8.33459 28.1568C8.16836 27.9899 8.03753 27.7918 7.95027 27.5741C7.86357 27.3578 7.82173 27.1266 7.82737 26.8941V12.5477C7.81851 12.3125 7.85876 12.0781 7.94548 11.8588C8.03308 11.6373 8.1661 11.4361 8.33585 11.2675L8.33881 11.2645L8.34184 11.2617C8.51571 11.0976 8.72171 10.9701 8.94696 10.8867Z" fill="#E02D9F"/>
<path fill-rule="evenodd" clip-rule="evenodd" d="M45.4137 11.0259C43.8281 11.0244 42.2692 11.426 40.892 12.1914C39.5148 12.9568 38.3666 14.0596 37.5628 15.3912L37.5607 15.3947C36.7508 16.7755 36.3394 18.3437 36.3705 19.9338C36.3462 21.5051 36.7292 23.0566 37.4838 24.4455L37.4842 24.4462C38.1931 25.7437 39.2474 26.831 40.5359 27.5953L40.5367 27.5958C41.8531 28.3712 43.3663 28.7719 44.9044 28.7531C46.4275 28.7811 47.9284 28.3899 49.2334 27.6238L49.2355 27.6226C49.8242 27.2713 50.3646 26.8501 50.8444 26.3695L50.8443 27.0107L50.8444 27.0159C50.85 27.3676 50.9615 27.7092 51.164 27.9985C51.3664 28.2877 51.6506 28.5117 51.9804 28.6443C52.3101 28.7768 52.6721 28.8126 53.022 28.7475C53.372 28.6825 53.6959 28.5193 53.9534 28.2765L53.9578 28.2723L53.9622 28.2679C54.1269 28.1005 54.2565 27.9025 54.343 27.6852C54.4289 27.4693 54.4705 27.2387 54.4651 27.0067V19.9609C54.4918 18.3647 54.0743 16.7917 53.2574 15.4078L53.2561 15.4056C52.4548 14.0726 51.3088 12.9676 49.9331 12.1997C48.5573 11.4318 46.9993 11.0273 45.4137 11.0259ZM40.5823 17.0232C41.0496 16.194 41.7374 15.4999 42.5756 15.0141C43.4402 14.5298 44.4214 14.2745 45.4207 14.2745C46.4193 14.2745 47.3998 14.5294 48.2639 15.0129C49.0886 15.507 49.7659 16.2 50.2304 17.0231C50.7262 17.9113 50.9779 18.9078 50.9618 19.9168L50.9617 19.9223L50.9618 19.9277C50.9795 20.9328 50.7278 21.9257 50.2309 22.8089C49.7656 23.6289 49.088 24.3184 48.2638 24.8088C47.4007 25.2951 46.4199 25.5516 45.4207 25.5516C44.4209 25.5516 43.4394 25.2947 42.5759 24.8079C41.737 24.3227 41.0488 23.6285 40.5824 22.7986L40.582 22.7979C40.085 21.9183 39.8324 20.9291 39.8482 19.9271L39.8482 19.9219L39.8482 19.9166C39.8316 18.9074 40.0842 17.9106 40.5823 17.0232Z" fill="#E02D9F"/>
<path fill-rule="evenodd" clip-rule="evenodd" d="M59.9504 11.2849C59.7299 11.2135 59.4974 11.1844 59.2659 11.199C59.0356 11.1874 58.8051 11.2196 58.5871 11.2941C58.362 11.3711 58.1547 11.4916 57.9777 11.6489L57.9668 11.6586L57.9568 11.6693C57.7949 11.8415 57.67 12.0442 57.5898 12.2654C57.5108 12.4831 57.477 12.7142 57.4905 12.945V26.8862C57.4741 27.1199 57.5064 27.3544 57.5853 27.5754C57.6656 27.8006 57.7925 28.0067 57.9574 28.1813L57.97 28.1946L57.9841 28.2065C58.3397 28.5067 58.7994 28.66 59.2662 28.637C59.5004 28.651 59.7354 28.6195 59.9575 28.5442C60.1864 28.4666 60.397 28.344 60.5762 28.1835L60.5892 28.1719L60.6009 28.1589C60.915 27.8102 61.0766 27.3536 61.0482 26.8878V18.2979L61.048 18.2923C61.0202 17.4928 61.3103 16.6225 61.8444 16.032C62.1464 15.7238 62.6017 15.3761 63.0974 15.0789C63.5971 14.7792 64.1127 14.5459 64.5281 14.451C65.4506 14.2401 66.2744 14.2105 67.4755 14.3648C67.7888 14.405 68.0563 14.3871 68.3109 14.37L68.3599 14.3667C68.5921 14.3517 68.9156 14.3263 69.188 14.1109L69.1939 14.1061L69.1997 14.1011C69.445 13.8876 69.6191 13.6056 69.6971 13.2917L69.6983 13.2869C69.7827 12.9239 69.7605 12.6057 69.5844 12.3199C69.4221 12.0565 69.1521 11.8627 68.8545 11.6816C68.1778 11.2698 67.2126 11.1996 66.0637 11.1996C65.0486 11.1917 63.9765 11.2157 62.9817 11.6627C62.2693 11.9828 61.6168 12.4133 61.0491 12.9358C61.0641 12.7086 61.0336 12.4806 60.9593 12.2648C60.8823 12.041 60.7598 11.8351 60.5998 11.6592L60.5859 11.644L60.5702 11.6306C60.3889 11.476 60.1781 11.3586 59.9504 11.2849Z" fill="#E02D9F"/>
<path fill-rule="evenodd" clip-rule="evenodd" d="M77.2867 5.97079C77.0646 5.8882 76.828 5.84992 76.5908 5.85799C76.3589 5.85206 76.128 5.89168 75.9117 5.97473C75.6918 6.0592 75.4914 6.18693 75.3233 6.3505C75.1551 6.5141 75.0228 6.71008 74.9352 6.92657C74.8483 7.14115 74.8072 7.371 74.8147 7.60198V11.297H73.5032C73.0649 11.2812 72.6356 11.4301 72.305 11.7153L72.301 11.7188L72.2971 11.7223C72.1348 11.8718 72.0069 12.0541 71.9229 12.2572C71.8352 12.4692 71.8025 12.761 71.8112 12.9651C71.8113 13.1669 71.8549 13.3661 71.9389 13.55C72.0237 13.7359 72.1478 13.9015 72.3022 14.0364C72.4655 14.182 72.6563 14.2943 72.8636 14.3673C73.0689 14.4396 73.2866 14.4719 73.5043 14.4627H74.8147V22.3486C74.7922 23.468 75.0609 24.5743 75.5954 25.5651L75.5959 25.5661C76.0949 26.4834 76.8339 27.2554 77.7371 27.8046C78.6544 28.3625 79.7171 28.651 80.7977 28.6361H81.3911C81.9039 28.6533 82.4066 28.4855 82.8018 28.1629C82.992 28.0094 83.1448 27.8155 83.2482 27.5952C83.3502 27.3781 83.4014 27.1412 83.3977 26.9018C83.4158 26.4464 83.2566 26.0025 82.954 25.6582C82.8129 25.4941 82.6364 25.3634 82.4379 25.275C82.2396 25.1867 82.024 25.1427 81.8066 25.1458L80.7955 25.1457L80.7901 25.1458C80.4663 25.1511 80.146 25.0841 79.8538 24.9502C79.5617 24.8163 79.3061 24.6194 79.1062 24.3754L79.1032 24.3718C78.6269 23.807 78.3791 23.0951 78.4038 22.3686L78.404 22.3631V14.4543H81.0445C81.2631 14.4617 81.4813 14.4275 81.6867 14.3534C81.8935 14.2788 82.0836 14.1653 82.2462 14.0187C82.3999 13.8836 82.5231 13.7179 82.6073 13.5321C82.6905 13.3485 82.7335 13.1498 82.7333 12.9486C82.7425 12.7444 82.7104 12.4532 82.6235 12.2416C82.54 12.0384 82.4126 11.8558 82.2507 11.7061L82.2462 11.7019L82.2415 11.6979C81.9106 11.4143 81.4823 11.2658 81.0446 11.2803H78.404V7.60157C78.411 7.37092 78.3698 7.14146 78.2831 6.92716C78.1956 6.71109 78.064 6.51528 77.8967 6.3515L77.8929 6.34786C77.7188 6.18291 77.5125 6.05476 77.2867 5.97079Z" fill="#E02D9F"/>
<path fill-rule="evenodd" clip-rule="evenodd" d="M93.9994 11.0259C92.4138 11.0244 90.8549 11.426 89.4777 12.1914C88.1005 12.9568 86.9523 14.0596 86.1485 15.3912L86.1464 15.3947C85.3366 16.7754 84.9252 18.3434 84.9562 19.9333C84.927 21.5037 85.3061 23.0555 86.0578 24.445L86.0586 24.4465C86.7704 25.7458 87.8293 26.8334 89.1224 27.5958C90.4423 28.3733 91.96 28.7741 93.5021 28.7531C95.0228 28.7778 96.5205 28.3846 97.8224 27.6181L97.824 27.6171C98.4128 27.2657 98.9531 26.8446 99.4329 26.3639V26.9873C99.4295 27.2204 99.4741 27.4515 99.5638 27.6672C99.6538 27.8837 99.7873 28.0798 99.956 28.2442C100.125 28.4085 100.325 28.5379 100.545 28.6251C100.762 28.7114 100.995 28.7548 101.229 28.7531C101.469 28.7607 101.709 28.7202 101.932 28.6339C102.159 28.5466 102.364 28.4143 102.536 28.2448L102.539 28.2414C102.704 28.074 102.834 27.876 102.92 27.6587C103.006 27.4427 103.048 27.2122 103.042 26.9802V19.9499C103.069 18.3584 102.655 16.7897 101.843 15.4084L101.842 15.4056C101.041 14.0726 99.8945 12.9676 98.5188 12.1997C97.143 11.4318 95.585 11.0273 93.9994 11.0259ZM94.0015 14.2754C95.0032 14.2554 95.9897 14.5109 96.8471 15.0115C97.6729 15.5056 98.3512 16.1991 98.8161 17.0231C99.3119 17.9113 99.5636 18.9078 99.5475 19.9168L99.5474 19.9223L99.5475 19.9277C99.5652 20.9328 99.3135 21.9257 98.8166 22.8089C98.3509 23.6296 97.6725 24.3195 96.8474 24.8101C95.9901 25.3117 95.0033 25.5682 94.0012 25.5491L93.9963 25.549L93.9914 25.5491C92.9988 25.5598 92.023 25.3034 91.1723 24.8091L91.1719 24.8088C90.3329 24.3228 89.6443 23.6283 89.1766 22.7984C88.6812 21.9181 88.4295 20.9289 88.4453 19.9271L88.4454 19.922L88.4453 19.9168C88.4292 18.9078 88.6809 17.9113 89.1767 17.0231C89.6452 16.1938 90.3337 15.4995 91.1721 15.0128C92.0229 14.5193 92.9987 14.2638 93.9911 14.2755L93.9963 14.2755L94.0015 14.2754Z" fill="#E02D9F"/>
</svg>
